<?xml version="1.0" encoding="UTF-8" standalone="no"?>
<svg
   version="1.1"
   width="72"
   height="72"
   id="svg3"
   xml:space="preserve"
   xmlns="http://www.w3.org/2000/svg"
   xmlns:svg="http://www.w3.org/2000/svg"><defs
     id="defs3" /><g
     id="g4"
     transform="matrix(0.89070732,0,0,0.89070732,3.9003714,5.4983284)"><path
       d="M 0,0 C 0.99,0.33 1.98,0.66 3,1 3.7382813,2.7851563 3.7382813,2.7851563 4.3125,5.0625 6.0622761,10.836761 9.0921103,16.042265 14.175781,19.464844 16,21 16,21 16.390625,23.042969 16.260417,25.028646 16.130208,27.014323 16,29 16.827578,28.351602 17.655156,27.703203 18.507812,27.035156 22.139055,24.616813 25.605347,24.453162 29.875,24.4375 35.870349,24.257564 40.524681,23.469262 46,21 c 0.99,0 1.98,0 3,0 -2.061302,7.973985 -5.265779,13.949118 -12.375,18.4375 -7.043602,3.115439 -16.325927,2.722302 -23.636719,0.75 C 5.8581906,37.042835 1.2546288,31.546961 -2.1679688,24.644531 -4.7216005,16.528059 -3.6280724,7.5584841 0,0 Z"
       fill="#07c060"
       transform="translate(5,28)"
       id="path1" /><path
       d="M 0,0 C 4.8892635,2.9504177 9.7332481,6.9497443 11.5625,12.4375 10.854805,12.278945 10.147109,12.120391 9.4179688,11.957031 -0.4326775,10.16478 -9.0324953,11.282238 -17.472656,16.757812 -23.701001,21.597673 -26.217108,28.036194 -28.4375,35.4375 c -0.66,0 -1.32,0 -2,0 -4.191048,-6.900261 -6.497995,-12.876728 -5,-21 2.597739,-6.6259514 7.958231,-11.9894438 14.292969,-15.140625 C -14.663002,-2.7607534 -6.2555903,-2.8579462 0,0 Z"
       fill="#07c060"
       transform="translate(47.4375,4.5625)"
       id="path2" /><path
       d="m 0,0 c 5.4175769,3.8087207 9.3081619,8.166598 10.6875,14.8125 0.948039,8.109576 -0.267493,14.278469 -5,21 -4.3896225,4.958988 -8.4852635,7.778487 -15,9 0.3493359,-0.603281 0.6986719,-1.206562 1.0585937,-1.828125 C -7.7988672,42.185156 -7.3438281,41.385937 -6.875,40.5625 -6.4225391,39.773594 -5.9700781,38.984687 -5.5039062,38.171875 -2.1468435,31.52379 -2.0393497,22.997339 -4.1835937,15.949219 -7.3870448,9.0276638 -11.630773,4.2851908 -18.75,1.4375 c -0.845625,-0.20625 -1.69125,-0.4125 -2.5625,-0.625 0,-0.66 0,-1.32 0,-2 C -13.984552,-3.8956547 -6.8997006,-4.0356739 0,0 Z"
       fill="#07c060"
       transform="translate(60.3125,22.1875)"
       id="path3" /></g><g
     id="layer1"><g
       style="fill:#07c060;fill-opacity:1"
       id="g3"
       transform="translate(55.918367,-0.87921667)"><path
         d="M 14.4184,12.699 12.1173,15.0002 9.99599,12.8788 12.2629,10.6119 C 12.6579,10.2169 13,9.5652 13,8.99613 V 7.99611 l -4,-2e-5 V 0.996095 h 7 V 8.99613 c 0,1.48047 -0.6056,2.72697 -1.5816,3.70287 z"
         fill="#000000"
         id="path1-8"
         style="fill:#07c060;fill-opacity:1" /><path
         d="M 5.41845,12.699 3.11731,15.0002 0.99599,12.8788 3.26295,10.6119 C 3.65789,10.2169 4,9.5652 4,8.99612 V 7.99611 L 0,7.99609 6.11959e-7,0.996094 H 7 V 8.99613 C 7,10.4766 6.39441,11.7231 5.41845,12.699 Z"
         fill="#000000"
         id="path2-4"
         style="fill:#07c060;fill-opacity:1" /></g></g></svg>